<svg width="339" height="46" viewBox="0 0 339 46" fill="none" xmlns="http://www.w3.org/2000/svg">
<path d="M25.4112 12C25.0362 10.8523 24.5419 9.82386 23.9283 8.91477C23.326 7.99432 22.6044 7.21023 21.7635 6.5625C20.934 5.91477 19.9908 5.42045 18.9339 5.07954C17.8771 4.73864 16.718 4.56818 15.4567 4.56818C13.3885 4.56818 11.5078 5.10227 9.81463 6.17045C8.12145 7.23864 6.77486 8.8125 5.77486 10.892C4.77486 12.9716 4.27486 15.5227 4.27486 18.5455C4.27486 21.5682 4.78054 24.1193 5.7919 26.1989C6.80327 28.2784 8.17259 29.8523 9.89986 30.9205C11.6271 31.9886 13.5703 32.5227 15.7294 32.5227C17.7294 32.5227 19.4908 32.0966 21.0135 31.2443C22.5476 30.3807 23.7408 29.1648 24.593 27.5966C25.4567 26.017 25.8885 24.1591 25.8885 22.0227L27.184 22.2955H16.6839V18.5455H29.9794V22.2955C29.9794 25.1705 29.3658 27.6705 28.1385 29.7955C26.9226 31.9205 25.2408 33.5682 23.093 34.7386C20.9567 35.8977 18.5021 36.4773 15.7294 36.4773C12.6385 36.4773 9.92259 35.75 7.58168 34.2955C5.25213 32.8409 3.43395 30.7727 2.12713 28.0909C0.831676 25.4091 0.183949 22.2273 0.183949 18.5455C0.183949 15.7841 0.553267 13.3011 1.2919 11.0966C2.0419 8.88068 3.09872 6.99432 4.46236 5.4375C5.82599 3.88068 7.43963 2.6875 9.30327 1.85795C11.1669 1.02841 13.218 0.613635 15.4567 0.613635C17.2976 0.613635 19.0135 0.892044 20.6044 1.44886C22.2067 1.99432 23.6328 2.77273 24.8828 3.78409C26.1442 4.78409 27.1953 5.98295 28.0362 7.38068C28.8771 8.76705 29.4567 10.3068 29.7749 12H25.4112ZM40.6967 1.09091V36H36.674V1.09091H40.6967ZM58.701 36.5455C56.3374 36.5455 54.2635 35.983 52.4794 34.858C50.7067 33.733 49.3203 32.1591 48.3203 30.1364C47.3317 28.1136 46.8374 25.75 46.8374 23.0455C46.8374 20.3182 47.3317 17.9375 48.3203 15.9034C49.3203 13.8693 50.7067 12.2898 52.4794 11.1648C54.2635 10.0398 56.3374 9.47727 58.701 9.47727C61.0646 9.47727 63.1328 10.0398 64.9055 11.1648C66.6896 12.2898 68.076 13.8693 69.0646 15.9034C70.0646 17.9375 70.5646 20.3182 70.5646 23.0455C70.5646 25.75 70.0646 28.1136 69.0646 30.1364C68.076 32.1591 66.6896 33.733 64.9055 34.858C63.1328 35.983 61.0646 36.5455 58.701 36.5455ZM58.701 32.9318C60.4964 32.9318 61.9737 32.4716 63.1328 31.5511C64.2919 30.6307 65.1499 29.4205 65.7067 27.9205C66.2635 26.4205 66.5419 24.7955 66.5419 23.0455C66.5419 21.2955 66.2635 19.6648 65.7067 18.1534C65.1499 16.642 64.2919 15.4205 63.1328 14.4886C61.9737 13.5568 60.4964 13.0909 58.701 13.0909C56.9055 13.0909 55.4283 13.5568 54.2692 14.4886C53.1101 15.4205 52.2521 16.642 51.6953 18.1534C51.1385 19.6648 50.8601 21.2955 50.8601 23.0455C50.8601 24.7955 51.1385 26.4205 51.6953 27.9205C52.2521 29.4205 53.1101 30.6307 54.2692 31.5511C55.4283 32.4716 56.9055 32.9318 58.701 32.9318ZM77.2507 36V1.09091H81.2734V13.9773H81.6143C81.9098 13.5227 82.3189 12.9432 82.8416 12.2386C83.3757 11.5227 84.1371 10.8864 85.1257 10.3295C86.1257 9.76136 87.478 9.47727 89.1825 9.47727C91.3871 9.47727 93.3303 10.0284 95.0121 11.1307C96.6939 12.233 98.0064 13.7955 98.9496 15.8182C99.8928 17.8409 100.364 20.2273 100.364 22.9773C100.364 25.75 99.8928 28.1534 98.9496 30.1875C98.0064 32.2102 96.6996 33.7784 95.0291 34.892C93.3587 35.9943 91.4325 36.5455 89.2507 36.5455C87.5689 36.5455 86.2223 36.267 85.2109 35.7102C84.1996 35.142 83.4212 34.5 82.8757 33.7841C82.3303 33.0568 81.9098 32.4545 81.6143 31.9773H81.1371V36H77.2507ZM81.2053 22.9091C81.2053 24.8864 81.495 26.6307 82.0746 28.142C82.6541 29.642 83.5007 30.8182 84.6143 31.6705C85.728 32.5114 87.0916 32.9318 88.7053 32.9318C90.3871 32.9318 91.7905 32.4886 92.9155 31.6023C94.0518 30.7045 94.9041 29.5 95.4723 27.9886C96.0518 26.4659 96.3416 24.7727 96.3416 22.9091C96.3416 21.0682 96.0575 19.4091 95.4893 17.9318C94.9325 16.4432 94.0859 15.267 92.9496 14.4034C91.8246 13.5284 90.4098 13.0909 88.7053 13.0909C87.0689 13.0909 85.6939 13.5057 84.5803 14.3352C83.4666 15.1534 82.6257 16.3011 82.0575 17.7784C81.4893 19.2443 81.2053 20.9545 81.2053 22.9091ZM114.222 36.6136C112.563 36.6136 111.058 36.3011 109.705 35.6761C108.353 35.0398 107.279 34.125 106.484 32.9318C105.688 31.7273 105.29 30.2727 105.29 28.5682C105.29 27.0682 105.586 25.8523 106.177 24.9205C106.768 23.9773 107.558 23.2386 108.546 22.7045C109.535 22.1705 110.626 21.7727 111.819 21.5114C113.023 21.2386 114.234 21.0227 115.45 20.8636C117.04 20.6591 118.33 20.5057 119.319 20.4034C120.319 20.2898 121.046 20.1023 121.501 19.8409C121.967 19.5795 122.2 19.125 122.2 18.4773V18.3409C122.2 16.6591 121.739 15.3523 120.819 14.4205C119.91 13.4886 118.529 13.0227 116.677 13.0227C114.756 13.0227 113.251 13.4432 112.16 14.2841C111.069 15.125 110.302 16.0227 109.859 16.9773L106.04 15.6136C106.722 14.0227 107.631 12.7841 108.768 11.8977C109.915 11 111.165 10.375 112.518 10.0227C113.881 9.65909 115.222 9.47727 116.54 9.47727C117.381 9.47727 118.347 9.57955 119.438 9.78409C120.54 9.97727 121.603 10.3807 122.626 10.9943C123.66 11.608 124.518 12.5341 125.2 13.7727C125.881 15.0114 126.222 16.6705 126.222 18.75V36H122.2V32.4545H121.995C121.722 33.0227 121.268 33.6307 120.631 34.2784C119.995 34.9261 119.148 35.4773 118.092 35.9318C117.035 36.3864 115.745 36.6136 114.222 36.6136ZM114.836 33C116.427 33 117.768 32.6875 118.859 32.0625C119.961 31.4375 120.79 30.6307 121.347 29.642C121.915 28.6534 122.2 27.6136 122.2 26.5227V22.8409C122.029 23.0455 121.654 23.233 121.075 23.4034C120.506 23.5625 119.847 23.7045 119.097 23.8295C118.359 23.9432 117.637 24.0455 116.933 24.1364C116.239 24.2159 115.677 24.2841 115.245 24.3409C114.2 24.4773 113.222 24.6989 112.313 25.0057C111.415 25.3011 110.688 25.75 110.131 26.3523C109.586 26.9432 109.313 27.75 109.313 28.7727C109.313 30.1705 109.83 31.2273 110.864 31.9432C111.91 32.6477 113.234 33 114.836 33ZM137.587 1.09091V36H133.565V1.09091H137.587ZM187.092 12H182.864C182.614 10.7841 182.177 9.71591 181.552 8.79545C180.938 7.875 180.188 7.10227 179.302 6.47727C178.427 5.84091 177.455 5.36364 176.387 5.04545C175.319 4.72727 174.205 4.56818 173.046 4.56818C170.933 4.56818 169.018 5.10227 167.302 6.17045C165.597 7.23864 164.239 8.8125 163.228 10.892C162.228 12.9716 161.728 15.5227 161.728 18.5455C161.728 21.5682 162.228 24.1193 163.228 26.1989C164.239 28.2784 165.597 29.8523 167.302 30.9205C169.018 31.9886 170.933 32.5227 173.046 32.5227C174.205 32.5227 175.319 32.3636 176.387 32.0455C177.455 31.7273 178.427 31.2557 179.302 30.6307C180.188 29.9943 180.938 29.2159 181.552 28.2955C182.177 27.3636 182.614 26.2955 182.864 25.0909H187.092C186.773 26.875 186.194 28.4716 185.353 29.8807C184.512 31.2898 183.467 32.4886 182.217 33.4773C180.967 34.4545 179.563 35.1989 178.006 35.7102C176.461 36.2216 174.808 36.4773 173.046 36.4773C170.069 36.4773 167.421 35.75 165.103 34.2955C162.785 32.8409 160.961 30.7727 159.631 28.0909C158.302 25.4091 157.637 22.2273 157.637 18.5455C157.637 14.8636 158.302 11.6818 159.631 9C160.961 6.31818 162.785 4.25 165.103 2.79545C167.421 1.34091 170.069 0.613635 173.046 0.613635C174.808 0.613635 176.461 0.869317 178.006 1.38068C179.563 1.89205 180.967 2.64205 182.217 3.63068C183.467 4.60795 184.512 5.80114 185.353 7.21023C186.194 8.60795 186.773 10.2045 187.092 12ZM201.082 36.6136C199.423 36.6136 197.917 36.3011 196.565 35.6761C195.212 35.0398 194.138 34.125 193.343 32.9318C192.548 31.7273 192.15 30.2727 192.15 28.5682C192.15 27.0682 192.445 25.8523 193.036 24.9205C193.627 23.9773 194.417 23.2386 195.406 22.7045C196.394 22.1705 197.485 21.7727 198.678 21.5114C199.883 21.2386 201.093 21.0227 202.309 20.8636C203.9 20.6591 205.19 20.5057 206.178 20.4034C207.178 20.2898 207.906 20.1023 208.36 19.8409C208.826 19.5795 209.059 19.125 209.059 18.4773V18.3409C209.059 16.6591 208.599 15.3523 207.678 14.4205C206.769 13.4886 205.388 13.0227 203.536 13.0227C201.616 13.0227 200.11 13.4432 199.019 14.2841C197.928 15.125 197.161 16.0227 196.718 16.9773L192.9 15.6136C193.582 14.0227 194.491 12.7841 195.627 11.8977C196.775 11 198.025 10.375 199.377 10.0227C200.741 9.65909 202.082 9.47727 203.4 9.47727C204.241 9.47727 205.207 9.57955 206.298 9.78409C207.4 9.97727 208.462 10.3807 209.485 10.9943C210.519 11.608 211.377 12.5341 212.059 13.7727C212.741 15.0114 213.082 16.6705 213.082 18.75V36H209.059V32.4545H208.854C208.582 33.0227 208.127 33.6307 207.491 34.2784C206.854 34.9261 206.008 35.4773 204.951 35.9318C203.894 36.3864 202.604 36.6136 201.082 36.6136ZM201.695 33C203.286 33 204.627 32.6875 205.718 32.0625C206.82 31.4375 207.65 30.6307 208.207 29.642C208.775 28.6534 209.059 27.6136 209.059 26.5227V22.8409C208.888 23.0455 208.513 23.233 207.934 23.4034C207.366 23.5625 206.707 23.7045 205.957 23.8295C205.218 23.9432 204.496 24.0455 203.792 24.1364C203.099 24.2159 202.536 24.2841 202.104 24.3409C201.059 24.4773 200.082 24.6989 199.173 25.0057C198.275 25.3011 197.548 25.75 196.991 26.3523C196.445 26.9432 196.173 27.75 196.173 28.7727C196.173 30.1705 196.69 31.2273 197.724 31.9432C198.769 32.6477 200.093 33 201.695 33ZM220.424 36V9.81818H224.31V13.9091H224.651C225.197 12.5114 226.077 11.4261 227.293 10.6534C228.509 9.86932 229.969 9.47727 231.674 9.47727C233.401 9.47727 234.839 9.86932 235.987 10.6534C237.146 11.4261 238.049 12.5114 238.697 13.9091H238.969C239.64 12.5568 240.646 11.483 241.987 10.6875C243.327 9.88068 244.935 9.47727 246.81 9.47727C249.151 9.47727 251.066 10.2102 252.555 11.6761C254.043 13.1307 254.788 15.3977 254.788 18.4773V36H250.765V18.4773C250.765 16.5455 250.237 15.1648 249.18 14.3352C248.123 13.5057 246.879 13.0909 245.447 13.0909C243.606 13.0909 242.18 13.6477 241.168 14.7614C240.157 15.8636 239.651 17.2614 239.651 18.9545V36H235.56V18.0682C235.56 16.5795 235.077 15.3807 234.112 14.4716C233.146 13.5511 231.901 13.0909 230.379 13.0909C229.333 13.0909 228.356 13.3693 227.447 13.9261C226.549 14.483 225.822 15.2557 225.265 16.2443C224.719 17.2216 224.447 18.3523 224.447 19.6364V36H220.424ZM262.143 45.8182V9.81818H266.029V13.9773H266.506C266.802 13.5227 267.211 12.9432 267.734 12.2386C268.268 11.5227 269.029 10.8864 270.018 10.3295C271.018 9.76136 272.37 9.47727 274.075 9.47727C276.279 9.47727 278.222 10.0284 279.904 11.1307C281.586 12.233 282.898 13.7955 283.842 15.8182C284.785 17.8409 285.256 20.2273 285.256 22.9773C285.256 25.75 284.785 28.1534 283.842 30.1875C282.898 32.2102 281.592 33.7784 279.921 34.892C278.251 35.9943 276.325 36.5455 274.143 36.5455C272.461 36.5455 271.114 36.267 270.103 35.7102C269.092 35.142 268.313 34.5 267.768 33.7841C267.222 33.0568 266.802 32.4545 266.506 31.9773H266.165V45.8182H262.143ZM266.097 22.9091C266.097 24.8864 266.387 26.6307 266.967 28.142C267.546 29.642 268.393 30.8182 269.506 31.6705C270.62 32.5114 271.984 32.9318 273.597 32.9318C275.279 32.9318 276.683 32.4886 277.808 31.6023C278.944 30.7045 279.796 29.5 280.364 27.9886C280.944 26.4659 281.234 24.7727 281.234 22.9091C281.234 21.0682 280.95 19.4091 280.381 17.9318C279.825 16.4432 278.978 15.267 277.842 14.4034C276.717 13.5284 275.302 13.0909 273.597 13.0909C271.961 13.0909 270.586 13.5057 269.472 14.3352C268.359 15.1534 267.518 16.3011 266.95 17.7784C266.381 19.2443 266.097 20.9545 266.097 22.9091ZM307.893 25.2955V9.81818H311.915V36H307.893V31.5682H307.62C307.006 32.8977 306.052 34.0284 304.756 34.9602C303.461 35.8807 301.825 36.3409 299.847 36.3409C298.211 36.3409 296.756 35.983 295.484 35.267C294.211 34.5398 293.211 33.4489 292.484 31.9943C291.756 30.5284 291.393 28.6818 291.393 26.4545V9.81818H295.415V26.1818C295.415 28.0909 295.95 29.6136 297.018 30.75C298.097 31.8864 299.472 32.4545 301.143 32.4545C302.143 32.4545 303.16 32.1989 304.194 31.6875C305.239 31.1761 306.114 30.392 306.819 29.3352C307.535 28.2784 307.893 26.9318 307.893 25.2955ZM337.829 15.6818L334.215 16.7045C333.988 16.1023 333.653 15.517 333.21 14.9489C332.778 14.3693 332.187 13.892 331.437 13.517C330.687 13.142 329.727 12.9545 328.556 12.9545C326.954 12.9545 325.619 13.3239 324.55 14.0625C323.494 14.7898 322.965 15.7159 322.965 16.8409C322.965 17.8409 323.329 18.6307 324.056 19.2102C324.783 19.7898 325.92 20.2727 327.465 20.6591L331.352 21.6136C333.692 22.1818 335.437 23.0511 336.585 24.2216C337.732 25.3807 338.306 26.875 338.306 28.7045C338.306 30.2045 337.874 31.5455 337.011 32.7273C336.158 33.9091 334.965 34.8409 333.431 35.5227C331.897 36.2045 330.113 36.5455 328.079 36.5455C325.408 36.5455 323.198 35.9659 321.448 34.8068C319.698 33.6477 318.59 31.9545 318.124 29.7273L321.942 28.7727C322.306 30.1818 322.994 31.2386 324.005 31.9432C325.028 32.6477 326.363 33 328.011 33C329.886 33 331.374 32.6023 332.477 31.8068C333.59 31 334.147 30.0341 334.147 28.9091C334.147 28 333.829 27.2386 333.192 26.625C332.556 26 331.579 25.5341 330.261 25.2273L325.897 24.2045C323.499 23.6364 321.738 22.7557 320.613 21.5625C319.499 20.358 318.942 18.8523 318.942 17.0455C318.942 15.5682 319.357 14.2614 320.187 13.125C321.028 11.9886 322.17 11.0966 323.613 10.4489C325.067 9.80114 326.715 9.47727 328.556 9.47727C331.147 9.47727 333.181 10.0455 334.658 11.1818C336.147 12.3182 337.204 13.8182 337.829 15.6818Z" fill="#76E6DF"/>
</svg>
